<svg width="300" height="300" viewBox="0 0 300 300" xmlns="http://www.w3.org/2000/svg"><g fill="none" fill-rule="evenodd"><g fill="#21B573" transform="translate(0 26)"><path d="M236 24.8h17.4c4.1 0 7.5 3.4 7.5 7.5v183.8c0 4.2-3.4 7.5-7.5 7.5H236V24.8zM273.3 49.7h17.4c4 0 7.4 3.3 7.4 7.4v134.2c0 4.1-3.3 7.4-7.4 7.4h-17.4v-149z"/><rect width="223.6" height="248.4" rx="1.6"/></g><g fill="#FFF"><path d="M52.2 65.8h114.6a2.5 2.5 0 0 1 1.6 4.4L53.7 161.9a2.5 2.5 0 0 1-4-2V68.3c0-1.3 1.1-2.4 2.5-2.4zM49.7 215v-38.6c0-.7.3-1.4 1-2L84 148.4c.5-.4 1-.6 1.6-.6h60.7a2.5 2.5 0 0 1 1.4 4.6L53.6 217a2.5 2.5 0 0 1-4-2zM50.8 229.3l34.7-24.2a2.5 2.5 0 0 1 4 2v25.3c0 1.4-1.2 2.5-2.5 2.5H52c-1.2 0-2.3-1-2.3-2.4v-1.1c0-.8.4-1.6 1-2z"/></g></g></svg>
